<?xml version="1.0" standalone="no"?>
<!DOCTYPE svg PUBLIC "-//W3C//DTD SVG 20010904//EN"
 "http://www.w3.org/TR/2001/REC-SVG-20010904/DTD/svg10.dtd">
<svg version="1.0" xmlns="http://www.w3.org/2000/svg"
 width="700.000000pt" height="700.000000pt" viewBox="0 0 700.000000 700.000000"
 preserveAspectRatio="xMidYMid meet">
<metadata>
Created by potrace 1.11, written by Peter Selinger 2001-2013
</metadata>
<g transform="translate(0.000000,700.000000) scale(0.100000,-0.100000)"
fill="#000000" stroke="none">
<path d="M3493 6961 c-249 -86 -488 -232 -688 -420 -77 -73 -182 -190 -225
-251 -13 -19 -27 -37 -30 -40 -45 -38 -227 -380 -276 -520 -33 -96 -91 -319
-100 -385 -3 -27 -7 -52 -9 -55 -10 -16 -20 -190 -20 -350 0 -206 7 -299 32
-430 3 -19 7 -44 8 -55 9 -77 107 -412 148 -507 8 -18 27 -62 42 -98 39 -92
130 -272 176 -348 21 -35 39 -66 39 -68 0 -9 183 -269 234 -331 91 -111 122
-150 131 -159 5 -6 33 -37 60 -69 28 -32 68 -80 90 -105 46 -54 53 -62 161
-195 168 -208 320 -421 432 -605 113 -186 205 -421 238 -607 2 -13 6 -35 9
-50 11 -62 19 -206 19 -328 -1 -120 -12 -313 -19 -325 -2 -3 -6 -37 -10 -75
-4 -39 -9 -73 -11 -76 -2 -4 -6 -31 -10 -60 -3 -30 -8 -57 -10 -60 -2 -4 -6
-24 -10 -45 -3 -22 -14 -75 -23 -119 -20 -94 -15 -135 25 -176 45 -47 90 -55
181 -35 138 30 407 139 518 209 144 91 243 161 306 217 227 200 395 422 528
695 73 149 150 366 177 500 37 181 58 376 58 540 0 86 -11 287 -18 320 -2 12
-7 48 -11 80 -4 33 -14 92 -22 130 -8 39 -17 81 -19 95 -49 246 -200 633 -353
900 -84 148 -164 269 -264 403 -138 183 -166 215 -498 572 -69 74 -203 227
-244 278 -16 21 -35 44 -41 50 -32 36 -141 190 -190 270 -104 168 -182 364
-210 527 -3 14 -9 49 -14 78 -19 107 -25 212 -25 447 0 221 3 276 22 450 10
92 6 124 -19 161 -49 72 -114 78 -265 25z"/>
<path d="M1902 3152 c-55 -8 -221 -122 -298 -204 -340 -359 -357 -929 -43
-1413 46 -71 124 -171 182 -235 119 -130 282 -358 337 -470 17 -36 36 -73 41
-83 5 -10 18 -59 29 -110 21 -101 22 -310 1 -397 -20 -90 9 -164 78 -195 49
-22 91 -15 175 27 96 48 159 93 238 171 288 284 378 734 232 1166 -32 94 -113
267 -154 327 -16 25 -30 47 -30 50 0 7 -128 175 -149 195 -90 89 -284 315
-335 391 -99 149 -126 254 -132 496 -4 196 -11 227 -59 258 -29 19 -81 31
-113 26z"/>
</g>
</svg>
