<?xml version="1.0" standalone="no"?>
<!DOCTYPE svg PUBLIC "-//W3C//DTD SVG 20010904//EN"
 "http://www.w3.org/TR/2001/REC-SVG-20010904/DTD/svg10.dtd">
<svg version="1.0" xmlns="http://www.w3.org/2000/svg"
 width="700.000000pt" height="700.000000pt" viewBox="0 0 700.000000 700.000000"
 preserveAspectRatio="xMidYMid meet">
<metadata>
Created by potrace 1.11, written by Peter Selinger 2001-2013
</metadata>
<g transform="translate(0.000000,700.000000) scale(0.100000,-0.100000)"
fill="#000000" stroke="none">
<path d="M4120 6996 c0 -3 10 -15 23 -28 12 -13 48 -54 78 -93 191 -238 315
-511 335 -735 3 -36 7 -75 9 -88 4 -24 1 -24 -100 -2 -38 8 -96 18 -140 24
-11 2 -42 6 -70 10 -27 4 -66 9 -85 12 -19 2 -64 7 -100 10 -36 4 -68 9 -72
13 -3 3 -25 42 -48 86 -183 348 -408 562 -657 625 -42 11 -94 20 -115 20 l-38
0 71 -82 c140 -162 258 -365 319 -547 17 -49 30 -93 30 -99 0 -5 -18 -12 -40
-16 -72 -11 -205 -61 -260 -98 -266 -177 -365 -479 -373 -1130 -1 -92 -5 -164
-8 -160 -3 4 -17 34 -30 67 -76 191 -201 405 -347 595 -143 186 -429 444 -615
556 -27 16 -63 37 -80 48 -104 62 -263 136 -437 204 -140 55 -473 135 -663
160 l-68 9 85 -86 c47 -47 111 -117 142 -156 210 -259 303 -546 249 -770 -8
-33 -14 -63 -15 -67 0 -4 28 -23 61 -43 34 -20 87 -56 118 -79 56 -44 171
-158 171 -171 0 -3 11 -21 24 -38 81 -106 140 -291 151 -464 1 -24 4 -45 6
-47 2 -2 50 -18 106 -35 124 -38 175 -59 320 -133 263 -133 465 -303 645 -544
27 -36 -247 -582 -330 -658 -15 -14 -104 -75 -199 -136 l-172 -111 -225 145
c-123 80 -231 148 -239 152 -9 3 -17 -2 -21 -13 -4 -15 -28 -150 -41 -233 -36
-233 -37 -528 -4 -763 58 -416 235 -827 506 -1174 80 -104 274 -301 373 -379
82 -65 218 -164 225 -164 3 0 28 -15 57 -34 266 -169 620 -292 978 -340 123
-16 418 -19 540 -5 106 12 163 20 170 24 3 2 23 6 45 9 74 12 90 16 180 41 50
14 97 27 105 29 54 13 236 88 352 146 480 239 862 619 1104 1100 134 267 219
561 250 865 10 101 12 360 3 446 -19 180 -26 236 -36 284 -3 17 -7 39 -9 50
-19 120 -18 119 -46 104 -23 -12 -111 -69 -335 -216 -62 -40 -115 -73 -119
-73 -5 0 -121 74 -404 258 -153 100 -177 115 -311 201 l-85 54 -12 90 c-23
165 -80 431 -138 633 -5 21 -2 20 127 -13 259 -66 524 -93 711 -71 148 17 306
74 393 142 149 117 208 254 201 471 -3 66 -6 127 -9 135 -2 8 -7 32 -12 53
-13 65 -61 185 -106 262 -178 312 -530 597 -973 789 l-80 34 -13 54 c-7 29
-17 62 -23 73 -5 11 -27 67 -49 125 -171 444 -436 761 -716 855 -68 23 -195
43 -195 31z"/>
</g>
</svg>
